<svg xmlns="http://www.w3.org/2000/svg" viewBox="0 0 1120 200" fill="#f5f5f2" role="img" aria-labelledby="title"><title id="title">BuyLess geometric exhibition lettering</title>
<path fill-rule="evenodd" d="M0 0H110L143 30V76L122 96 151 121V166L116 200H0ZM54 42V78H93V42ZM54 121V157H98V121Z"/>
<path d="M161 0H214V147H252V0H305V168L273 200H192L161 168Z"/>
<path d="M316 0H372L396 55 422 0H478L423 106V200H369V106Z"/>
<path fill="#08b95a" d="M487 0H542V147H626V200H487Z"/>
<path fill="#08b95a" d="M637 0H782V49H692V76H765V122H692V151H782V200H637Z"/>
<path fill="#08b95a" d="M792 34 825 0H947V49H847V77H913L947 108V166L913 200H792V150H891V123H826L792 91Z"/>
<path fill="#08b95a" d="M959 34 992 0H1118V49H1014V77H1084L1118 108V166L1084 200H959V150H1062V123H993L959 91Z"/>
</svg>
